<svg version="1.1" xmlns="http://www.w3.org/2000/svg" xmlns:xlink="http://www.w3.org/1999/xlink" width="1725" height="762"><defs/><g><g transform="translate(-22,-70) scale(1,1)"><rect fill="#ffffff" stroke="none" x="160" y="336" width="21" height="368"/></g><g transform="translate(-22,-70) scale(1,1)"><path fill="none" stroke="#000000" d="M 160 336 L 181 336 L 181 704 L 160 704 L 160 336 Z Z" stroke-miterlimit="10" stroke-width="2"/></g><g transform="translate(-22,-70) scale(1,1)"><path fill="none" stroke="#000000" d="M 752 336 L 160 336 L 160 704 L 752 704" stroke-miterlimit="10" stroke-width="2"/></g><g transform="translate(-22,-70) scale(1,1)"><g><path fill="none" stroke="none" transform="translate(164,520) rotate(-90,0,0)"/><text fill="#000000" stroke="none" font-family="Arial" font-size="13px" font-style="normal" font-weight="normal" text-decoration="none" x="-42.5" y="13">Builder Scripts</text></g></g><g transform="translate(-22,-70) scale(1,1)"><path fill="#C0C0C0" stroke="none" d="M 39 360.5 C 39 355.2532944 43.2532944 351 48.5 351 C 53.7467056 351 58 355.2532944 58 360.5 C 58 365.7467056 53.7467056 370 48.5 370 C 43.2532944 370 39 365.7467056 39 360.5 Z" opacity="0.2"/></g><g transform="translate(-22,-70) scale(1,1)"><path fill="#000000" stroke="none" d="M 32 353.5 C 32 348.2532944 36.2532944 344 41.5 344 C 46.7467056 344 51 348.2532944 51 353.5 C 51 358.7467056 46.7467056 363 41.5 363 C 36.2532944 363 32 358.7467056 32 353.5 Z"/></g><g transform="translate(-22,-70) scale(1,1)"><rect fill="#ffffff" stroke="none" x="160" y="80" width="21" height="254"/></g><g transform="translate(-22,-70) scale(1,1)"><path fill="none" stroke="#000000" d="M 160 80 L 181 80 L 181 334 L 160 334 L 160 80 Z Z" stroke-miterlimit="10" stroke-width="2"/></g><g transform="translate(-22,-70) scale(1,1)"><path fill="none" stroke="#000000" d="M 1392 80 L 160 80 L 160 334 L 1392 334" stroke-miterlimit="10" stroke-width="2"/></g><g transform="translate(-22,-70) scale(1,1)"><g><path fill="none" stroke="none" transform="translate(164,207) rotate(-90,0,0)"/><text fill="#000000" stroke="none" font-family="Arial" font-size="13px" font-style="normal" font-weight="normal" text-decoration="none" x="-23" y="13">Pipeline</text></g></g><g transform="translate(-22,-70) scale(1,1)"><path fill="#C0C0C0" stroke="none" d="M 1719 395.5 C 1719 388.59644 1724.59644 383 1731.5 383 C 1738.40356 383 1744 388.59644 1744 395.5 C 1744 402.40356 1738.40356 408 1731.5 408 C 1724.59644 408 1719 402.40356 1719 395.5 Z" opacity="0.2"/></g><g transform="translate(-22,-70) scale(1,1)"><path fill="#ffffff" stroke="none" d="M 1712 388.5 C 1712 381.59644 1717.59644 376 1724.5 376 C 1731.40356 376 1737 381.59644 1737 388.5 C 1737 395.40356 1731.40356 401 1724.5 401 C 1717.59644 401 1712 395.40356 1712 388.5 Z"/></g><g transform="translate(-22,-70) scale(1,1)"><path fill="none" stroke="#000000" d="M 1712 388.5 C 1712 381.59644 1717.59644 376 1724.5 376 C 1731.40356 376 1737 381.59644 1737 388.5 C 1737 395.40356 1731.40356 401 1724.5 401 C 1717.59644 401 1712 395.40356 1712 388.5 Z" stroke-miterlimit="10"/></g><g transform="translate(-22,-70) scale(1,1)"><path fill="none" stroke="#000000" d="M 1715 379 L 1733 397" stroke-miterlimit="10"/></g><g transform="translate(-22,-70) scale(1,1)"><path fill="none" stroke="#000000" d="M 1733 379 L 1715 397" stroke-miterlimit="10"/></g><g transform="translate(-22,-70) scale(1,1)"><path fill="#C0C0C0" stroke="none" d="M 522 447 L 521 447 Q 524 447 524 450 L 524 596 Q 524 599 521 599 L 522 599 Q 519 599 519 596 L 519 450 Q 519 447 522 447 Z" opacity="0.2"/></g><g transform="translate(-22,-70) scale(1,1)"><path fill="#000000" stroke="none" d="M 515 440 L 515 440 Q 518 440 518 443 L 518 589 Q 518 592 515 592 L 515 592 Q 512 592 512 589 L 512 443 Q 512 440 515 440 Z"/></g><g transform="translate(-22,-70) scale(1,1)"><rect fill="#C0C0C0" stroke="none" x="583" y="511" width="116" height="24" opacity="0.2"/></g><g transform="translate(-22,-70) scale(1,1)"><rect fill="#ffffff" stroke="none" x="576" y="504" width="116" height="24"/></g><g transform="translate(-22,-70) scale(1,1)"><path fill="none" stroke="#000000" d="M 576 504 L 692 504 L 692 528 L 576 528 L 576 504 Z Z" stroke-miterlimit="10"/></g><g transform="translate(-22,-70) scale(1,1)"><rect fill="#ffffff" stroke="none" x="576" y="504" width="116" height="24"/></g><g transform="translate(-22,-70) scale(1,1)"><path fill="none" stroke="#000000" d="M 576 504 L 692 504 L 692 528 L 576 528 L 576 504 Z Z" stroke-miterlimit="10"/></g><g transform="translate(-22,-70) scale(1,1)"><g><path fill="none" stroke="none"/><text fill="#000000" stroke="none" font-family="Arial" font-size="13px" font-style="normal" font-weight="bold" text-decoration="none" x="586" y="523.5">building_script.R</text></g></g><g transform="translate(-22,-70) scale(1,1)"><path fill="none" stroke="#000000" d="M 518 516 L 575 516" stroke-miterlimit="10"/></g><g transform="translate(-22,-70) scale(1,1)"><path fill="none" stroke="#000000" d="M 564.8373251423759 520.209517756016 L 575 516 L 564.8373251423758 511.790482243984" stroke-miterlimit="10"/></g><g transform="translate(-22,-70) scale(1,1)"><path fill="#C0C0C0" stroke="none" d="M 337 119 L 430 119 Q 440 119 440 129 L 440 149 Q 440 159 430 159 L 337 159 Q 327 159 327 149 L 327 129 Q 327 119 337 119 Z" opacity="0.2"/></g><g transform="translate(-22,-70) scale(1,1)"><path fill="#ffffff" stroke="none" d="M 330 112 L 423 112 Q 433 112 433 122 L 433 142 Q 433 152 423 152 L 330 152 Q 320 152 320 142 L 320 122 Q 320 112 330 112 Z"/></g><g transform="translate(-22,-70) scale(1,1)"><path fill="none" stroke="#000000" d="M 330 112 L 423 112 Q 433 112 433 122 L 433 142 Q 433 152 423 152 L 330 152 Q 320 152 320 142 L 320 122 Q 320 112 330 112 Z" stroke-miterlimit="10"/></g><g transform="translate(-22,-70) scale(1,1)"><g><path fill="none" stroke="none"/><text fill="#000000" stroke="none" font-family="Arial" font-size="13px" font-style="normal" font-weight="bold" text-decoration="none" x="328.5" y="131.5">read config.yaml</text></g></g><g transform="translate(-22,-70) scale(1,1)"><path fill="#C0C0C0" stroke="none" d="M 215 216.5 L 226.5 207 L 237 216.5 L 226.5 225 L 215 216.5" opacity="0.2"/></g><g transform="translate(-22,-70) scale(1,1)"><path fill="#ffffff" stroke="none" d="M 208 209 L 219 200 L 230 209 L 219 218 L 208 209"/></g><g transform="translate(-22,-70) scale(1,1)"><path fill="none" stroke="#000000" d="M 208 209 L 219 200 L 230 209 L 219 218 L 208 209 L 208 209" stroke-miterlimit="10"/></g><g transform="translate(-22,-70) scale(1,1)"><path fill="none" stroke="#000000" d="M 231 203 L 333 153" stroke-miterlimit="10"/></g><g transform="translate(-22,-70) scale(1,1)"><path fill="none" stroke="#000000" d="M 325.72757326749985 161.25298790865568 L 333 153 L 322.02187402650577 153.69336145702783" stroke-miterlimit="10"/></g><g transform="translate(-22,-70) scale(1,1)"><path fill="#C0C0C0" stroke="none" d="M 313 279 L 432 279 Q 442 279 442 289 L 442 309 Q 442 319 432 319 L 313 319 Q 303 319 303 309 L 303 289 Q 303 279 313 279 Z" opacity="0.2"/></g><g transform="translate(-22,-70) scale(1,1)"><path fill="#ffffff" stroke="none" d="M 306 272 L 425 272 Q 435 272 435 282 L 435 302 Q 435 312 425 312 L 306 312 Q 296 312 296 302 L 296 282 Q 296 272 306 272 Z"/></g><g transform="translate(-22,-70) scale(1,1)"><path fill="none" stroke="#000000" d="M 306 272 L 425 272 Q 435 272 435 282 L 435 302 Q 435 312 425 312 L 306 312 Q 296 312 296 302 L 296 282 Q 296 272 306 272 Z" stroke-miterlimit="10"/></g><g transform="translate(-22,-70) scale(1,1)"><g><path fill="none" stroke="none"/><text fill="#000000" stroke="none" font-family="Arial" font-size="13px" font-style="normal" font-weight="bold" text-decoration="none" x="305" y="291.5">generate config.yaml</text></g></g><g transform="translate(-22,-70) scale(1,1)"><path fill="none" stroke="#000000" d="M 231 216 L 328 271" stroke-miterlimit="10"/></g><g transform="translate(-22,-70) scale(1,1)"><path fill="none" stroke="#000000" d="M 317.08325317267173 269.64920811816984 L 328 271 L 321.2358483895133 262.3255401902856" stroke-miterlimit="10"/></g><g transform="translate(-22,-70) scale(1,1)"><path fill="none" stroke="#000000" d="M 366 271 L 375 153" stroke-miterlimit="10"/></g><g transform="translate(-22,-70) scale(1,1)"><path fill="none" stroke="#000000" d="M 378.42445240803534 163.4533786741465 L 375 153 L 370.02979857277256 162.81310846637223" stroke-miterlimit="10"/></g><g transform="translate(-22,-70) scale(1,1)"><path fill="#C0C0C0" stroke="none" d="M 497 119 L 542 119 Q 552 119 552 129 L 552 149 Q 552 159 542 159 L 497 159 Q 487 159 487 149 L 487 129 Q 487 119 497 119 Z" opacity="0.2"/></g><g transform="translate(-22,-70) scale(1,1)"><path fill="#ffffff" stroke="none" d="M 490 112 L 535 112 Q 545 112 545 122 L 545 142 Q 545 152 535 152 L 490 152 Q 480 152 480 142 L 480 122 Q 480 112 490 112 Z"/></g><g transform="translate(-22,-70) scale(1,1)"><path fill="none" stroke="#000000" d="M 490 112 L 535 112 Q 545 112 545 122 L 545 142 Q 545 152 535 152 L 490 152 Q 480 152 480 142 L 480 122 Q 480 112 490 112 Z" stroke-miterlimit="10"/></g><g transform="translate(-22,-70) scale(1,1)"><g><path fill="none" stroke="none"/><text fill="#000000" stroke="none" font-family="Arial" font-size="13px" font-style="normal" font-weight="bold" text-decoration="none" x="485.5" y="131.5">set paths</text></g></g><g transform="translate(-22,-70) scale(1,1)"><path fill="#C0C0C0" stroke="none" d="M 481 183 L 600 183 Q 610 183 610 193 L 610 213 Q 610 223 600 223 L 481 223 Q 471 223 471 213 L 471 193 Q 471 183 481 183 Z" opacity="0.2"/></g><g transform="translate(-22,-70) scale(1,1)"><path fill="#ffffff" stroke="none" d="M 474 176 L 593 176 Q 603 176 603 186 L 603 206 Q 603 216 593 216 L 474 216 Q 464 216 464 206 L 464 186 Q 464 176 474 176 Z"/></g><g transform="translate(-22,-70) scale(1,1)"><path fill="none" stroke="#000000" d="M 474 176 L 593 176 Q 603 176 603 186 L 603 206 Q 603 216 593 216 L 474 216 Q 464 216 464 206 L 464 186 Q 464 176 474 176 Z" stroke-miterlimit="10"/></g><g transform="translate(-22,-70) scale(1,1)"><g><path fill="none" stroke="none"/><text fill="#000000" stroke="none" font-family="Arial" font-size="13px" font-style="normal" font-weight="bold" text-decoration="none" x="473.5" y="195.5">pull named data files</text></g></g><g transform="translate(-22,-70) scale(1,1)"><path fill="none" stroke="#000000" d="M 519 153 L 526 175" stroke-miterlimit="10"/></g><g transform="translate(-22,-70) scale(1,1)"><path fill="none" stroke="#000000" d="M 518.9072818243206 166.59206631327362 L 526 175 L 526.9299978065831 164.03938395528104" stroke-miterlimit="10"/></g><g transform="translate(-22,-70) scale(1,1)"><path fill="none" stroke="#000000" d="M 434 132 L 479 132" stroke-miterlimit="10"/></g><g transform="translate(-22,-70) scale(1,1)"><path fill="none" stroke="#000000" d="M 468.83732514237585 136.209517756016 L 479 132 L 468.83732514237585 127.79048224398402" stroke-miterlimit="10"/></g><g transform="translate(-22,-70) scale(1,1)"><path fill="#C0C0C0" stroke="none" d="M 497 239 L 587 239 Q 597 239 597 249 L 597 269 Q 597 279 587 279 L 497 279 Q 487 279 487 269 L 487 249 Q 487 239 497 239 Z" opacity="0.2"/></g><g transform="translate(-22,-70) scale(1,1)"><path fill="#ffffff" stroke="none" d="M 490 232 L 580 232 Q 590 232 590 242 L 590 262 Q 590 272 580 272 L 490 272 Q 480 272 480 262 L 480 242 Q 480 232 490 232 Z"/></g><g transform="translate(-22,-70) scale(1,1)"><path fill="none" stroke="#000000" d="M 490 232 L 580 232 Q 590 232 590 242 L 590 262 Q 590 272 580 272 L 490 272 Q 480 272 480 262 L 480 242 Q 480 232 490 232 Z" stroke-miterlimit="10"/></g><g transform="translate(-22,-70) scale(1,1)"><g><path fill="none" stroke="none"/><text fill="#000000" stroke="none" font-family="Arial" font-size="13px" font-style="normal" font-weight="bold" text-decoration="none" x="488" y="251.5">Pull feature files</text></g></g><g transform="translate(-22,-70) scale(1,1)"><path fill="none" stroke="#000000" d="M 534 217 L 534 231" stroke-miterlimit="10"/></g><g transform="translate(-22,-70) scale(1,1)"><path fill="none" stroke="#000000" d="M 529.790482243984 220.83732514237585 L 534 231 L 538.209517756016 220.83732514237585" stroke-miterlimit="10"/></g><g transform="translate(-22,-70) scale(1,1)"><path fill="#ffffff" stroke="none" d="M 608 208 L 677 208 L 687 218 L 687 309 L 608 309 L 608 208"/></g><g transform="translate(-22,-70) scale(1,1)"><path fill="none" stroke="#000000" d="M 608 208 L 677 208 L 687 218 L 687 309 L 608 309 L 608 208 L 608 208" stroke-miterlimit="10"/></g><g transform="translate(-22,-70) scale(1,1)"><path fill="none" stroke="#000000" d="M 677 208 L 677 218 L 687 218 L 677 208" stroke-miterlimit="10"/></g><g transform="translate(-22,-70) scale(1,1)"><g><path fill="none" stroke="none"/><text fill="#000000" stroke="none" font-family="Arial" font-size="13px" font-style="normal" font-weight="normal" text-decoration="none" x="613" y="226">skips</text><text fill="#000000" stroke="none" font-family="Arial" font-size="13px" font-style="normal" font-weight="normal" text-decoration="none" x="613" y="239">features</text><text fill="#000000" stroke="none" font-family="Arial" font-size="13px" font-style="normal" font-weight="normal" text-decoration="none" x="613" y="252">with value=</text><text fill="#000000" stroke="none" font-family="Arial" font-size="13px" font-style="normal" font-weight="normal" text-decoration="none" x="613" y="265">"NULL" (as</text><text fill="#000000" stroke="none" font-family="Arial" font-size="13px" font-style="normal" font-weight="normal" text-decoration="none" x="613" y="278">a string)"</text></g></g><g transform="translate(-22,-70) scale(1,1)"><path fill="none" stroke="#000000" d="M 591 255 L 607 256" stroke-miterlimit="10" stroke-dasharray="3"/></g><g transform="translate(-22,-70) scale(1,1)"><path fill="none" stroke="#000000" d="M 535 272 L 535 368 M 535 368 A 8 8 0 0 1 527 376 L 200 376 M 200 376 A 8 8 0 0 0 192 384 L 192 525 M 192 525 A 8 8 0 0 0 200 533 L 216 533" stroke-miterlimit="10"/></g><g transform="translate(-22,-70) scale(1,1)"><path fill="none" stroke="#000000" d="M 205.83732514237585 537.209517756016 L 216 533 L 205.83732514237585 528.790482243984" stroke-miterlimit="10"/></g><g transform="translate(-22,-70) scale(1,1)"><path fill="#C0C0C0" stroke="none" d="M 226 495 L 225 495 Q 228 495 228 498 L 228 572 Q 228 575 225 575 L 226 575 Q 223 575 223 572 L 223 498 Q 223 495 226 495 Z" opacity="0.2"/></g><g transform="translate(-22,-70) scale(1,1)"><path fill="#000000" stroke="none" d="M 219 488 L 219 488 Q 222 488 222 491 L 222 565 Q 222 568 219 568 L 219 568 Q 216 568 216 565 L 216 491 Q 216 488 219 488 Z"/></g><g transform="translate(-22,-70) scale(1,1)"><path fill="none" stroke="#000000" d="M 222 525 L 282 472" stroke-miterlimit="10"/></g><g transform="translate(-22,-70) scale(1,1)"><path fill="none" stroke="#000000" d="M 277.1701941343393 481.88296389247824 L 282 472 L 271.59650073398353 475.5731223071699" stroke-miterlimit="10"/></g><g transform="translate(-22,-70) scale(1,1)"><rect fill="#C0C0C0" stroke="none" x="247" y="439" width="132" height="39" opacity="0.2"/></g><g transform="translate(-22,-70) scale(1,1)"><rect fill="#ffffff" stroke="none" x="240" y="432" width="132" height="39"/></g><g transform="translate(-22,-70) scale(1,1)"><path fill="none" stroke="#000000" d="M 240 432 L 372 432 L 372 471 L 240 471 L 240 432 Z Z" stroke-miterlimit="10"/></g><g transform="translate(-22,-70) scale(1,1)"><rect fill="#ffffff" stroke="none" x="240" y="432" width="132" height="39"/></g><g transform="translate(-22,-70) scale(1,1)"><path fill="none" stroke="#000000" d="M 240 432 L 372 432 L 372 471 L 240 471 L 240 432 Z Z" stroke-miterlimit="10"/></g><g transform="translate(-22,-70) scale(1,1)"><g><path fill="none" stroke="none"/><text fill="#000000" stroke="none" font-family="Arial" font-size="13px" font-style="normal" font-weight="bold" text-decoration="none" x="251.5" y="451.5">data building script</text></g></g><g transform="translate(-22,-70) scale(1,1)"><g><path fill="none" stroke="none"/><text fill="#000000" stroke="none" font-family="Arial" font-size="13px" font-style="normal" font-weight="normal" text-decoration="none" x="244.5" y="466.5">(from Builder Scripts)</text></g></g><g transform="translate(-22,-70) scale(1,1)"><path fill="none" stroke="#000000" d="M 373 472 L 511 515" stroke-miterlimit="10"/></g><g transform="translate(-22,-70) scale(1,1)"><path fill="none" stroke="#000000" d="M 500.04515456323327 515.9956713597119 L 511 515 L 502.5497085345262 507.9578004750972" stroke-miterlimit="10"/></g><g transform="translate(-22,-70) scale(1,1)"><path fill="none" stroke="#000000" d="M 222 528 L 255 526" stroke-miterlimit="10"/></g><g transform="translate(-22,-70) scale(1,1)"><path fill="none" stroke="#000000" d="M 245.11059314652672 530.8165996394215 L 255 526 L 244.60128308470067 522.4129836192919" stroke-miterlimit="10"/></g><g transform="translate(-22,-70) scale(1,1)"><path fill="none" stroke="#000000" d="M 389 521 L 511 516" stroke-miterlimit="10"/></g><g transform="translate(-22,-70) scale(1,1)"><path fill="none" stroke="#000000" d="M 501.0182258181897 520.6221406494551 L 511 516 L 500.67347279094145 512.2101667845968" stroke-miterlimit="10"/></g><g transform="translate(-22,-70) scale(1,1)"><rect fill="#C0C0C0" stroke="none" x="263" y="511" width="132" height="39" opacity="0.2"/></g><g transform="translate(-22,-70) scale(1,1)"><rect fill="#ffffff" stroke="none" x="256" y="504" width="132" height="39"/></g><g transform="translate(-22,-70) scale(1,1)"><path fill="none" stroke="#000000" d="M 256 504 L 388 504 L 388 543 L 256 543 L 256 504 Z Z" stroke-miterlimit="10"/></g><g transform="translate(-22,-70) scale(1,1)"><rect fill="#ffffff" stroke="none" x="256" y="504" width="132" height="39"/></g><g transform="translate(-22,-70) scale(1,1)"><path fill="none" stroke="#000000" d="M 256 504 L 388 504 L 388 543 L 256 543 L 256 504 Z Z" stroke-miterlimit="10"/></g><g transform="translate(-22,-70) scale(1,1)"><g><path fill="none" stroke="none"/><text fill="#000000" stroke="none" font-family="Arial" font-size="13px" font-style="normal" font-weight="bold" text-decoration="none" x="267.5" y="523.5">data building script</text></g></g><g transform="translate(-22,-70) scale(1,1)"><g><path fill="none" stroke="none"/><text fill="#000000" stroke="none" font-family="Arial" font-size="13px" font-style="normal" font-weight="normal" text-decoration="none" x="260.5" y="538.5">(from Builder Scripts)</text></g></g><g transform="translate(-22,-70) scale(1,1)"><path fill="none" stroke="#000000" d="M 222 530 L 281 567" stroke-miterlimit="10"/></g><g transform="translate(-22,-70) scale(1,1)"><path fill="none" stroke="#000000" d="M 270.1538064772398 565.166946245514 L 281 567 L 274.6267477500711 558.0344182699182" stroke-miterlimit="10"/></g><g transform="translate(-22,-70) scale(1,1)"><path fill="none" stroke="#000000" d="M 370 567 L 511 517" stroke-miterlimit="10"/></g><g transform="translate(-22,-70) scale(1,1)"><path fill="none" stroke="#000000" d="M 502.8286208134917 524.3640044941797 L 511 517 L 500.01482485105066 516.429099880096" stroke-miterlimit="10"/></g><g transform="translate(-22,-70) scale(1,1)"><rect fill="#C0C0C0" stroke="none" x="255" y="575" width="132" height="39" opacity="0.2"/></g><g transform="translate(-22,-70) scale(1,1)"><rect fill="#ffffff" stroke="none" x="248" y="568" width="132" height="39"/></g><g transform="translate(-22,-70) scale(1,1)"><path fill="none" stroke="#000000" d="M 248 568 L 380 568 L 380 607 L 248 607 L 248 568 Z Z" stroke-miterlimit="10"/></g><g transform="translate(-22,-70) scale(1,1)"><rect fill="#ffffff" stroke="none" x="248" y="568" width="132" height="39"/></g><g transform="translate(-22,-70) scale(1,1)"><path fill="none" stroke="#000000" d="M 248 568 L 380 568 L 380 607 L 248 607 L 248 568 Z Z" stroke-miterlimit="10"/></g><g transform="translate(-22,-70) scale(1,1)"><g><path fill="none" stroke="none"/><text fill="#000000" stroke="none" font-family="Arial" font-size="13px" font-style="normal" font-weight="bold" text-decoration="none" x="259.5" y="587.5">data building script</text></g></g><g transform="translate(-22,-70) scale(1,1)"><g><path fill="none" stroke="none"/><text fill="#000000" stroke="none" font-family="Arial" font-size="13px" font-style="normal" font-weight="normal" text-decoration="none" x="252.5" y="602.5">(from Builder Scripts)</text></g></g><g transform="translate(-22,-70) scale(1,1)"><rect fill="#ffffff" stroke="none" x="160" y="704" width="21" height="118"/></g><g transform="translate(-22,-70) scale(1,1)"><path fill="none" stroke="#000000" d="M 160 704 L 181 704 L 181 822 L 160 822 L 160 704 Z Z" stroke-miterlimit="10" stroke-width="2"/></g><g transform="translate(-22,-70) scale(1,1)"><path fill="none" stroke="#000000" d="M 1496 704 L 160 704 L 160 822 L 1496 822" stroke-miterlimit="10" stroke-width="2"/></g><g transform="translate(-22,-70) scale(1,1)"><g><path fill="none" stroke="none" transform="translate(164,763) rotate(-90,0,0)"/><text fill="#000000" stroke="none" font-family="Arial" font-size="13px" font-style="normal" font-weight="normal" text-decoration="none" x="-48.5" y="13">Modeling Scripts</text></g></g><g transform="translate(-22,-70) scale(1,1)"><path fill="#C0C0C0" stroke="none" d="M 745 463 L 1029 463 Q 1039 463 1039 473 L 1039 591 Q 1039 601 1029 601 L 745 601 Q 735 601 735 591 L 735 473 Q 735 463 745 463 Z" opacity="0.2"/></g><g transform="translate(-22,-70) scale(1,1)"><path fill="#ffffff" stroke="none" d="M 738 456 L 1022 456 Q 1032 456 1032 466 L 1032 584 Q 1032 594 1022 594 L 738 594 Q 728 594 728 584 L 728 466 Q 728 456 738 456 Z"/></g><g transform="translate(-22,-70) scale(1,1)"><path fill="none" stroke="#000000" d="M 738 456 L 1022 456 Q 1032 456 1032 466 L 1032 584 Q 1032 594 1022 594 L 738 594 Q 728 594 728 584 L 728 466 Q 728 456 738 456 Z" stroke-miterlimit="10"/></g><g transform="translate(-22,-70) scale(1,1)"><g><path fill="none" stroke="none"/><text fill="#000000" stroke="none" font-family="Arial" font-size="13px" font-style="normal" font-weight="bold" text-decoration="none" x="827" y="475.5">test_train_validate</text></g></g><g transform="translate(-22,-70) scale(1,1)"><path fill="none" stroke="#000000" d="M 693 518 L 727 519" stroke-miterlimit="10"/></g><g transform="translate(-22,-70) scale(1,1)"><path fill="none" stroke="#000000" d="M 716.7179620834851 522.9089252082061 L 727 519 L 716.9654737429415 514.4935287866888" stroke-miterlimit="10"/></g><g transform="translate(-22,-70) scale(1,1)"><rect fill="#ffffff" stroke="none" x="953" y="594" width="17" height="17"/></g><g transform="translate(-22,-70) scale(1,1)"><path fill="none" stroke="#000000" d="M 953 594 L 970 594 L 970 611 L 953 611 L 953 594 Z Z" stroke-miterlimit="10"/></g><g transform="translate(-22,-70) scale(1,1)"><path fill="none" stroke="#000000" d="M 961 609 L 961 596" stroke-miterlimit="10"/></g><g transform="translate(-22,-70) scale(1,1)"><path fill="none" stroke="#000000" d="M 961 609 L 958 606" stroke-miterlimit="10"/></g><g transform="translate(-22,-70) scale(1,1)"><path fill="none" stroke="#000000" d="M 961 609 L 964 606" stroke-miterlimit="10"/></g><g transform="translate(-22,-70) scale(1,1)"><g><path fill="none" stroke="none"/><text fill="#000000" stroke="none" font-family="Arial" font-size="13px" font-style="normal" font-weight="normal" text-decoration="none" x="903.5" y="572">training_data</text></g></g><g transform="translate(-22,-70) scale(1,1)"><rect fill="#ffffff" stroke="none" x="928" y="594" width="17" height="17"/></g><g transform="translate(-22,-70) scale(1,1)"><path fill="none" stroke="#000000" d="M 928 594 L 945 594 L 945 611 L 928 611 L 928 594 Z Z" stroke-miterlimit="10"/></g><g transform="translate(-22,-70) scale(1,1)"><path fill="none" stroke="#000000" d="M 936 609 L 936 596" stroke-miterlimit="10"/></g><g transform="translate(-22,-70) scale(1,1)"><path fill="none" stroke="#000000" d="M 936 609 L 933 606" stroke-miterlimit="10"/></g><g transform="translate(-22,-70) scale(1,1)"><path fill="none" stroke="#000000" d="M 936 609 L 939 606" stroke-miterlimit="10"/></g><g transform="translate(-22,-70) scale(1,1)"><g><path fill="none" stroke="none"/><text fill="#000000" stroke="none" font-family="Arial" font-size="13px" font-style="normal" font-weight="normal" text-decoration="none" x="904" y="581">validate_data</text></g></g><g transform="translate(-22,-70) scale(1,1)"><rect fill="#ffffff" stroke="none" x="904" y="594" width="17" height="17"/></g><g transform="translate(-22,-70) scale(1,1)"><path fill="none" stroke="#000000" d="M 904 594 L 921 594 L 921 611 L 904 611 L 904 594 Z Z" stroke-miterlimit="10"/></g><g transform="translate(-22,-70) scale(1,1)"><path fill="none" stroke="#000000" d="M 912 609 L 912 596" stroke-miterlimit="10"/></g><g transform="translate(-22,-70) scale(1,1)"><path fill="none" stroke="#000000" d="M 912 609 L 909 606" stroke-miterlimit="10"/></g><g transform="translate(-22,-70) scale(1,1)"><path fill="none" stroke="#000000" d="M 912 609 L 915 606" stroke-miterlimit="10"/></g><g transform="translate(-22,-70) scale(1,1)"><g><path fill="none" stroke="none"/><text fill="#000000" stroke="none" font-family="Arial" font-size="13px" font-style="normal" font-weight="normal" text-decoration="none" x="903.5" y="589">test_data</text></g></g><g transform="translate(-22,-70) scale(1,1)"><rect fill="#ffffff" stroke="none" x="1032" y="494" width="17" height="17"/></g><g transform="translate(-22,-70) scale(1,1)"><path fill="none" stroke="#000000" d="M 1032 494 L 1049 494 L 1049 511 L 1032 511 L 1032 494 Z Z" stroke-miterlimit="10"/></g><g transform="translate(-22,-70) scale(1,1)"><path fill="none" stroke="#000000" d="M 1034 502 L 1047 502" stroke-miterlimit="10"/></g><g transform="translate(-22,-70) scale(1,1)"><path fill="none" stroke="#000000" d="M 1034 502 L 1037 499" stroke-miterlimit="10"/></g><g transform="translate(-22,-70) scale(1,1)"><path fill="none" stroke="#000000" d="M 1034 502 L 1037 505" stroke-miterlimit="10"/></g><g transform="translate(-22,-70) scale(1,1)"><g><path fill="none" stroke="none"/><text fill="#000000" stroke="none" font-family="Arial" font-size="13px" font-style="normal" font-weight="normal" text-decoration="none" x="1072" y="509">start-end training season</text></g></g><g transform="translate(-22,-70) scale(1,1)"><rect fill="#ffffff" stroke="none" x="1032" y="510" width="17" height="17"/></g><g transform="translate(-22,-70) scale(1,1)"><path fill="none" stroke="#000000" d="M 1032 510 L 1049 510 L 1049 527 L 1032 527 L 1032 510 Z Z" stroke-miterlimit="10"/></g><g transform="translate(-22,-70) scale(1,1)"><path fill="none" stroke="#000000" d="M 1034 518 L 1047 518" stroke-miterlimit="10"/></g><g transform="translate(-22,-70) scale(1,1)"><path fill="none" stroke="#000000" d="M 1034 518 L 1037 515" stroke-miterlimit="10"/></g><g transform="translate(-22,-70) scale(1,1)"><path fill="none" stroke="#000000" d="M 1034 518 L 1037 521" stroke-miterlimit="10"/></g><g transform="translate(-22,-70) scale(1,1)"><g><path fill="none" stroke="none"/><text fill="#000000" stroke="none" font-family="Arial" font-size="13px" font-style="normal" font-weight="normal" text-decoration="none" x="1071.5" y="525">start-end validate season</text></g></g><g transform="translate(-22,-70) scale(1,1)"><rect fill="#ffffff" stroke="none" x="1032" y="528" width="17" height="17"/></g><g transform="translate(-22,-70) scale(1,1)"><path fill="none" stroke="#000000" d="M 1032 528 L 1049 528 L 1049 545 L 1032 545 L 1032 528 Z Z" stroke-miterlimit="10"/></g><g transform="translate(-22,-70) scale(1,1)"><path fill="none" stroke="#000000" d="M 1034 536 L 1047 536" stroke-miterlimit="10"/></g><g transform="translate(-22,-70) scale(1,1)"><path fill="none" stroke="#000000" d="M 1034 536 L 1037 533" stroke-miterlimit="10"/></g><g transform="translate(-22,-70) scale(1,1)"><path fill="none" stroke="#000000" d="M 1034 536 L 1037 539" stroke-miterlimit="10"/></g><g transform="translate(-22,-70) scale(1,1)"><g><path fill="none" stroke="none"/><text fill="#000000" stroke="none" font-family="Arial" font-size="13px" font-style="normal" font-weight="normal" text-decoration="none" x="1071.5" y="541">training split</text></g></g><g transform="translate(-22,-70) scale(1,1)"><rect fill="#ffffff" stroke="none" x="945" y="439" width="17" height="17"/></g><g transform="translate(-22,-70) scale(1,1)"><path fill="none" stroke="#000000" d="M 945 439 L 962 439 L 962 456 L 945 456 L 945 439 Z Z" stroke-miterlimit="10"/></g><g transform="translate(-22,-70) scale(1,1)"><path fill="none" stroke="#000000" d="M 953 454 L 953 441" stroke-miterlimit="10"/></g><g transform="translate(-22,-70) scale(1,1)"><path fill="none" stroke="#000000" d="M 953 454 L 950 451" stroke-miterlimit="10"/></g><g transform="translate(-22,-70) scale(1,1)"><path fill="none" stroke="#000000" d="M 953 454 L 956 451" stroke-miterlimit="10"/></g><g transform="translate(-22,-70) scale(1,1)"><g><path fill="none" stroke="none"/><text fill="#000000" stroke="none" font-family="Arial" font-size="13px" font-style="normal" font-weight="normal" text-decoration="none" x="967.5" y="453">tourney.file</text></g></g><g transform="translate(-22,-70) scale(1,1)"><path fill="none" stroke="#000000" d="M 603 184 L 944 184 M 944 184 A 8 8 0 0 1 952 192 L 952 439" stroke-miterlimit="10"/></g><g transform="translate(-22,-70) scale(1,1)"><path fill="none" stroke="#000000" d="M 947.790482243984 428.83732514237585 L 952 439 L 956.209517756016 428.83732514237585" stroke-miterlimit="10"/></g><g transform="translate(-22,-70) scale(1,1)"><path fill="none" stroke="#000000" d="M 414 112 L 414 112 M 414 112 A 8 8 0 0 1 422 104 L 1032 104 M 1032 104 A 8 8 0 0 1 1040 112 L 1040 494" stroke-miterlimit="10"/></g><g transform="translate(-22,-70) scale(1,1)"><path fill="none" stroke="#000000" d="M 1035.7904822439841 483.83732514237585 L 1040 494 L 1044.2095177560159 483.83732514237585" stroke-miterlimit="10"/></g><g transform="translate(-22,-70) scale(1,1)"><path fill="none" stroke="#000000" d="M 52 344 L 207 219" stroke-miterlimit="10"/></g><g transform="translate(-22,-70) scale(1,1)"><path fill="none" stroke="#000000" d="M 201.73177646454323 228.6563875637041 L 207 219 L 196.44670628521132 222.10290054133256" stroke-miterlimit="10"/></g><g transform="translate(-22,-70) scale(1,1)"><g><path fill="none" stroke="none"/><text fill="#000000" stroke="none" font-family="Arial" font-size="13px" font-style="normal" font-weight="normal" text-decoration="none" x="39" y="293">pipeline start</text></g></g><g transform="translate(-22,-70) scale(1,1)"><path fill="none" stroke="#000000" d="M 915 612 L 955 727" stroke-miterlimit="10"/></g><g transform="translate(-22,-70) scale(1,1)"><path fill="none" stroke="#000000" d="M 947.6854756684636 718.7842995549155 L 955 727 L 955.6372277409332 716.0184727471" stroke-miterlimit="10"/></g><g transform="translate(-22,-70) scale(1,1)"><path fill="none" stroke="#000000" d="M 938 612 L 961 727" stroke-miterlimit="10"/></g><g transform="translate(-22,-70) scale(1,1)"><path fill="none" stroke="#000000" d="M 954.8791637187296 717.8602317743891 L 961 727 L 963.1347072497839 716.2091230681783" stroke-miterlimit="10"/></g><g transform="translate(-22,-70) scale(1,1)"><path fill="none" stroke="#000000" d="M 961 612 L 966 727" stroke-miterlimit="10"/></g><g transform="translate(-22,-70) scale(1,1)"><path fill="none" stroke="#000000" d="M 961.3530169751094 717.0297668649936 L 966 727 L 969.764106250815 716.6640673312673" stroke-miterlimit="10"/></g><g transform="translate(-22,-70) scale(1,1)"><path fill="#C0C0C0" stroke="none" d="M 1329 735 L 1383 735 Q 1393 735 1393 745 L 1393 813 Q 1393 823 1383 823 L 1329 823 Q 1319 823 1319 813 L 1319 745 Q 1319 735 1329 735 Z" opacity="0.2"/></g><g transform="translate(-22,-70) scale(1,1)"><path fill="#ffffff" stroke="none" d="M 1322 728 L 1376 728 Q 1386 728 1386 738 L 1386 806 Q 1386 816 1376 816 L 1322 816 Q 1312 816 1312 806 L 1312 738 Q 1312 728 1322 728 Z"/></g><g transform="translate(-22,-70) scale(1,1)"><path fill="none" stroke="#000000" d="M 1322 728 L 1376 728 Q 1386 728 1386 738 L 1386 806 Q 1386 816 1376 816 L 1322 816 Q 1312 816 1312 806 L 1312 738 Q 1312 728 1322 728 Z" stroke-miterlimit="10"/></g><g transform="translate(-22,-70) scale(1,1)"><g><path fill="none" stroke="none"/><text fill="#000000" stroke="none" font-family="Arial" font-size="13px" font-style="normal" font-weight="bold" text-decoration="none" x="1319" y="747.5">estimation</text></g></g><g transform="translate(-22,-70) scale(1,1)"><path fill="none" stroke="#000000" d="M 1041 765 L 1311 771" stroke-miterlimit="10"/></g><g transform="translate(-22,-70) scale(1,1)"><path fill="none" stroke="#000000" d="M 1300.7463117657383 774.9826972762894 L 1311 771 L 1300.9333552659034 766.5657397688582" stroke-miterlimit="10"/></g><g transform="translate(-22,-70) scale(1,1)"><rect fill="#ffffff" stroke="none" x="1384" y="776" width="17" height="17"/></g><g transform="translate(-22,-70) scale(1,1)"><path fill="none" stroke="#000000" d="M 1384 776 L 1401 776 L 1401 793 L 1384 793 L 1384 776 Z Z" stroke-miterlimit="10"/></g><g transform="translate(-22,-70) scale(1,1)"><path fill="none" stroke="#000000" d="M 1386 784 L 1399 784" stroke-miterlimit="10"/></g><g transform="translate(-22,-70) scale(1,1)"><path fill="none" stroke="#000000" d="M 1399 784 L 1396 781" stroke-miterlimit="10"/></g><g transform="translate(-22,-70) scale(1,1)"><path fill="none" stroke="#000000" d="M 1399 784 L 1396 787" stroke-miterlimit="10"/></g><g transform="translate(-22,-70) scale(1,1)"><g><path fill="none" stroke="none"/><text fill="#000000" stroke="none" font-family="Arial" font-size="13px" font-style="normal" font-weight="normal" text-decoration="none" x="1384" y="804">model</text></g></g><g transform="translate(-22,-70) scale(1,1)"><rect fill="#C0C0C0" stroke="none" x="903" y="735" width="144" height="71" opacity="0.2"/></g><g transform="translate(-22,-70) scale(1,1)"><rect fill="#ffffff" stroke="none" x="896" y="728" width="144" height="71"/></g><g transform="translate(-22,-70) scale(1,1)"><path fill="none" stroke="#000000" d="M 896 728 L 1040 728 L 1040 799 L 896 799 L 896 728 Z Z" stroke-miterlimit="10"/></g><g transform="translate(-22,-70) scale(1,1)"><rect fill="#ffffff" stroke="none" x="896" y="728" width="144" height="71"/></g><g transform="translate(-22,-70) scale(1,1)"><path fill="none" stroke="#000000" d="M 896 728 L 1040 728 L 1040 799 L 896 799 L 896 728 Z Z" stroke-miterlimit="10"/></g><g transform="translate(-22,-70) scale(1,1)"><g><path fill="none" stroke="none"/><text fill="#000000" stroke="none" font-family="Arial" font-size="13px" font-style="normal" font-weight="bold" text-decoration="none" x="924" y="747.5">modeling script</text></g></g><g transform="translate(-22,-70) scale(1,1)"><g><path fill="none" stroke="none"/><text fill="#000000" stroke="none" font-family="Arial" font-size="13px" font-style="normal" font-weight="normal" text-decoration="none" x="900.5" y="762.5">(from Modeling Scripts)</text></g></g><g transform="translate(-22,-70) scale(1,1)"><path fill="none" stroke="#000000" d="M 1392 775 L 1381 225" stroke-miterlimit="10"/></g><g transform="translate(-22,-70) scale(1,1)"><path fill="none" stroke="#000000" d="M 1385.4118889635959 235.07646941011092 L 1381 225 L 1376.9945367536925 235.24481645430896" stroke-miterlimit="10"/></g><g transform="translate(-22,-70) scale(1,1)"><path fill="#C0C0C0" stroke="none" d="M 1369 191 L 1408 191 Q 1418 191 1418 201 L 1418 221 Q 1418 231 1408 231 L 1369 231 Q 1359 231 1359 221 L 1359 201 Q 1359 191 1369 191 Z" opacity="0.2"/></g><g transform="translate(-22,-70) scale(1,1)"><path fill="#ffffff" stroke="none" d="M 1362 184 L 1401 184 Q 1411 184 1411 194 L 1411 214 Q 1411 224 1401 224 L 1362 224 Q 1352 224 1352 214 L 1352 194 Q 1352 184 1362 184 Z"/></g><g transform="translate(-22,-70) scale(1,1)"><path fill="none" stroke="#000000" d="M 1362 184 L 1401 184 Q 1411 184 1411 194 L 1411 214 Q 1411 224 1401 224 L 1362 224 Q 1352 224 1352 214 L 1352 194 Q 1352 184 1362 184 Z" stroke-miterlimit="10"/></g><g transform="translate(-22,-70) scale(1,1)"><g><path fill="none" stroke="none"/><text fill="#000000" stroke="none" font-family="Arial" font-size="13px" font-style="normal" font-weight="bold" text-decoration="none" x="1362" y="203.5">predict</text></g></g><g transform="translate(-22,-70) scale(1,1)"><rect fill="#ffffff" stroke="none" x="1408" y="200" width="17" height="17"/></g><g transform="translate(-22,-70) scale(1,1)"><path fill="none" stroke="#000000" d="M 1408 200 L 1425 200 L 1425 217 L 1408 217 L 1408 200 Z Z" stroke-miterlimit="10"/></g><g transform="translate(-22,-70) scale(1,1)"><path fill="none" stroke="#000000" d="M 1410 208 L 1423 208" stroke-miterlimit="10"/></g><g transform="translate(-22,-70) scale(1,1)"><path fill="none" stroke="#000000" d="M 1423 208 L 1420 205" stroke-miterlimit="10"/></g><g transform="translate(-22,-70) scale(1,1)"><path fill="none" stroke="#000000" d="M 1423 208 L 1420 211" stroke-miterlimit="10"/></g><g transform="translate(-22,-70) scale(1,1)"><g><path fill="none" stroke="none"/><text fill="#000000" stroke="none" font-family="Arial" font-size="13px" font-style="normal" font-weight="normal" text-decoration="none" x="1408" y="236">submission_format_output</text></g></g><g transform="translate(-22,-70) scale(1,1)"><path fill="none" stroke="#000000" d="M 1425 208 L 1704 208 M 1704 208 A 8 8 0 0 1 1712 216 L 1712 376" stroke-miterlimit="10"/></g><g transform="translate(-22,-70) scale(1,1)"><path fill="none" stroke="#000000" d="M 1707.7904822439841 365.83732514237585 L 1712 376 L 1716.2095177560159 365.83732514237585" stroke-miterlimit="10"/></g></g></svg>